<svg preserveAspectRatio="none" width="100%" height="100%" overflow="visible" style="display: block;" viewBox="0 0 12 12" fill="none" xmlns="http://www.w3.org/2000/svg">
<g id="SVG">
<path id="Vector" d="M6 10V11" stroke="var(--stroke-0, #00FF00)" stroke-linecap="round" stroke-linejoin="round"/>
<path id="Vector_2" d="M6 1V2" stroke="var(--stroke-0, #00FF00)" stroke-linecap="round" stroke-linejoin="round"/>
<path id="Vector_3" d="M8.5 10V11" stroke="var(--stroke-0, #00FF00)" stroke-linecap="round" stroke-linejoin="round"/>
<path id="Vector_4" d="M8.5 1V2" stroke="var(--stroke-0, #00FF00)" stroke-linecap="round" stroke-linejoin="round"/>
<path id="Vector_5" d="M1 6H2" stroke="var(--stroke-0, #00FF00)" stroke-linecap="round" stroke-linejoin="round"/>
<path id="Vector_6" d="M1 8.5H2" stroke="var(--stroke-0, #00FF00)" stroke-linecap="round" stroke-linejoin="round"/>
<path id="Vector_7" d="M1 3.5H2" stroke="var(--stroke-0, #00FF00)" stroke-linecap="round" stroke-linejoin="round"/>
<path id="Vector_8" d="M10 6H11" stroke="var(--stroke-0, #00FF00)" stroke-linecap="round" stroke-linejoin="round"/>
<path id="Vector_9" d="M10 8.5H11" stroke="var(--stroke-0, #00FF00)" stroke-linecap="round" stroke-linejoin="round"/>
<path id="Vector_10" d="M10 3.5H11" stroke="var(--stroke-0, #00FF00)" stroke-linecap="round" stroke-linejoin="round"/>
<path id="Vector_11" d="M3.5 10V11" stroke="var(--stroke-0, #00FF00)" stroke-linecap="round" stroke-linejoin="round"/>
<path id="Vector_12" d="M3.5 1V2" stroke="var(--stroke-0, #00FF00)" stroke-linecap="round" stroke-linejoin="round"/>
<path id="Vector_13" d="M9 2H3C2.44772 2 2 2.44772 2 3V9C2 9.55228 2.44772 10 3 10H9C9.55228 10 10 9.55228 10 9V3C10 2.44772 9.55228 2 9 2Z" stroke="var(--stroke-0, #00FF00)" stroke-linecap="round" stroke-linejoin="round"/>
<path id="Vector_14" d="M7.5 4H4.5C4.22386 4 4 4.22386 4 4.5V7.5C4 7.77614 4.22386 8 4.5 8H7.5C7.77614 8 8 7.77614 8 7.5V4.5C8 4.22386 7.77614 4 7.5 4Z" stroke="var(--stroke-0, #00FF00)" stroke-linecap="round" stroke-linejoin="round"/>
</g>
</svg>
