<svg preserveAspectRatio="none" width="100%" height="100%" overflow="visible" style="display: block;" viewBox="0 0 12.9981 12.9981" fill="none" xmlns="http://www.w3.org/2000/svg">
<g id="Icon" clip-path="url(#clip0_0_503)">
<path id="Vector" d="M2.08506 4.66774C2.00601 4.31166 2.01815 3.94138 2.12035 3.59125C2.22255 3.24111 2.4115 2.92244 2.66969 2.6648C2.92787 2.40715 3.24693 2.21887 3.59728 2.1174C3.94763 2.01594 4.31793 2.00458 4.67384 2.08437C4.86974 1.778 5.13961 1.52586 5.45857 1.35122C5.77754 1.17657 6.13534 1.08503 6.49899 1.08503C6.86264 1.08503 7.22044 1.17657 7.5394 1.35122C7.85837 1.52586 8.12824 1.778 8.32413 2.08437C8.68059 2.00423 9.05152 2.01554 9.40243 2.11725C9.75334 2.21896 10.0728 2.40777 10.3312 2.66612C10.5895 2.92446 10.7783 3.24395 10.88 3.59485C10.9817 3.94576 10.9931 4.3167 10.9129 4.67315C11.2193 4.86905 11.4714 5.13892 11.6461 5.45788C11.8207 5.77685 11.9123 6.13465 11.9123 6.4983C11.9123 6.86195 11.8207 7.21974 11.6461 7.53871C11.4714 7.85768 11.2193 8.12754 10.9129 8.32344C10.9927 8.67935 10.9813 9.04965 10.8799 9.4C10.7784 9.75035 10.5901 10.0694 10.3325 10.3276C10.0748 10.5858 9.75617 10.7747 9.40604 10.8769C9.0559 10.9791 8.68563 10.9913 8.32955 10.9122C8.13391 11.2198 7.86383 11.473 7.54432 11.6484C7.22481 11.8238 6.8662 11.9158 6.5017 11.9158C6.13719 11.9158 5.77858 11.8238 5.45907 11.6484C5.13956 11.473 4.86948 11.2198 4.67384 10.9122C4.31793 10.992 3.94763 10.9807 3.59728 10.8792C3.24693 10.7777 2.92787 10.5894 2.66969 10.3318C2.4115 10.0741 2.22255 9.75548 2.12035 9.40535C2.01815 9.05521 2.00601 8.68494 2.08506 8.32886C1.77633 8.13348 1.52204 7.86319 1.34582 7.54313C1.16961 7.22308 1.07721 6.86365 1.07721 6.4983C1.07721 6.13294 1.16961 5.77352 1.34582 5.45346C1.52204 5.13341 1.77633 4.86312 2.08506 4.66774Z" stroke="var(--stroke-0, #00FF00)" stroke-width="1.08317" stroke-linecap="round" stroke-linejoin="round"/>
<path id="Vector_2" d="M4.87435 6.49847L5.95752 7.58164L8.12387 5.4153" stroke="var(--stroke-0, #00FF00)" stroke-width="1.08317" stroke-linecap="round" stroke-linejoin="round"/>
</g>
<defs>
<clipPath id="clip0_0_503">
<rect width="12.9981" height="12.9981" fill="white"/>
</clipPath>
</defs>
</svg>
