<svg preserveAspectRatio="none" width="100%" height="100%" overflow="visible" style="display: block;" viewBox="0 0 23.6 23.6" fill="none" xmlns="http://www.w3.org/2000/svg">
<g id="bar-chart-box-ai-line" clip-path="url(#clip0_0_513)">
<path id="Vector" d="M20.3682 7.99264L20.1257 8.54889C19.9483 8.95612 19.385 8.95612 19.2075 8.54889L18.9652 7.99264C18.533 7.00081 17.7546 6.21114 16.7832 5.77913L16.0362 5.4469C15.6323 5.26725 15.6323 4.6795 16.0362 4.49985L16.7414 4.18619C17.7378 3.74307 18.5301 2.92417 18.9548 1.89865L19.2038 1.29754C19.3774 0.878598 19.956 0.878598 20.1294 1.29754L20.3784 1.89865C20.8032 2.92417 21.5956 3.74307 22.5919 4.18619L23.297 4.49985C23.701 4.6795 23.701 5.26725 23.297 5.4469L22.5501 5.77913C21.5788 6.21114 20.8004 7.00081 20.3682 7.99264ZM1.96667 3.93333C1.96667 3.39026 2.40692 2.95 2.95 2.95H13.7667V4.91667H3.93333V18.6833H19.6667V10.8167H21.6333V19.6667C21.6333 20.2098 21.1931 20.65 20.65 20.65H2.95C2.40692 20.65 1.96667 20.2098 1.96667 19.6667V3.93333ZM6.88333 12.7833H8.85V16.7167H6.88333V12.7833ZM10.8167 6.88333H12.7833V16.7167H10.8167V6.88333ZM14.75 9.83333H16.7167V16.7167H14.75V9.83333Z" fill="var(--fill-0, #01FF00)" fill-opacity="0.6"/>
</g>
<defs>
<clipPath id="clip0_0_513">
<rect width="23.6" height="23.6" fill="white"/>
</clipPath>
</defs>
</svg>
