<svg preserveAspectRatio="none" width="100%" height="100%" overflow="visible" style="display: block;" viewBox="0 0 14 14" fill="none" xmlns="http://www.w3.org/2000/svg">
<g id="reactjs-line">
<path id="Vector" d="M7.00058 7.87506C6.51729 7.87506 6.12558 7.48329 6.12558 7.00006C6.12558 6.51677 6.51729 6.12506 7.00058 6.12506C7.48382 6.12506 7.87558 6.51677 7.87558 7.00006C7.87558 7.48329 7.48382 7.87506 7.00058 7.87506ZM6.69276 9.62179C6.79461 9.74458 6.89728 9.863 7.00058 9.97675C7.10383 9.863 7.20656 9.74458 7.30835 9.62179C7.20638 9.62395 7.10378 9.62506 7.00058 9.62506C6.89733 9.62506 6.79473 9.62395 6.69276 9.62179ZM5.52905 9.54882C5.06112 9.49935 4.61437 9.42684 4.19573 9.33427C4.15235 9.5382 4.11912 9.73607 4.09642 9.92635C3.98626 10.85 4.14053 11.411 4.37557 11.5467C4.61061 11.6824 5.17354 11.5355 5.91838 10.9783C6.0718 10.8635 6.22656 10.7358 6.38149 10.5962C6.09198 10.28 5.80584 9.92932 5.52905 9.54882ZM9.80543 9.33427C9.38677 9.42684 8.93999 9.49935 8.4721 9.54882C8.19531 9.92932 7.90913 10.28 7.61962 10.5962C7.77461 10.7358 7.92931 10.8635 8.08278 10.9783C8.82758 11.5355 9.39056 11.6824 9.62558 11.5467C9.86061 11.411 10.0149 10.85 9.90471 9.92635C9.88202 9.73607 9.84877 9.5382 9.80543 9.33427ZM10.6516 9.10793C10.9879 10.6473 10.8108 11.8728 10.0631 12.3044C9.31531 12.7361 8.16556 12.2768 7.00058 11.2158C5.83555 12.2768 4.68581 12.7361 3.93807 12.3044C3.19033 11.8728 3.01324 10.6473 3.3496 9.10793C1.84825 8.62954 0.875572 7.86345 0.875572 7.00006C0.875572 6.13661 1.84825 5.37056 3.3496 4.89215C3.01324 3.35273 3.19033 2.12734 3.93807 1.69563C4.68581 1.26393 5.83555 1.72325 7.00058 2.78426C8.16556 1.72325 9.31531 1.26393 10.0631 1.69563C10.8108 2.12734 10.9879 3.35273 10.6516 4.89215C12.1529 5.37056 13.1256 6.13661 13.1256 7.00006C13.1256 7.86345 12.1529 8.62954 10.6516 9.10793ZM6.38149 3.40387C6.22656 3.26432 6.0718 3.1366 5.91838 3.02181C5.17354 2.46458 4.61061 2.31771 4.37557 2.45341C4.14053 2.58911 3.98626 3.15006 4.09642 4.07371C4.11912 4.26399 4.15235 4.46186 4.19573 4.66583C4.61437 4.57325 5.06112 4.50074 5.52905 4.45129C5.80584 4.07078 6.09198 3.72013 6.38149 3.40387ZM8.4721 4.45129C8.93999 4.50074 9.38677 4.57325 9.80543 4.66583C9.84877 4.46186 9.88202 4.26399 9.90471 4.07371C10.0149 3.15006 9.86061 2.58911 9.62558 2.45341C9.39056 2.31771 8.82758 2.46458 8.08278 3.02181C7.92931 3.1366 7.77461 3.26432 7.61962 3.40387C7.90913 3.72013 8.19531 4.07078 8.4721 4.45129ZM7.30835 4.3783C7.20656 4.2555 7.10383 4.13706 7.00058 4.02331C6.89728 4.13706 6.79461 4.2555 6.69276 4.3783C6.79473 4.37613 6.89733 4.37504 7.00058 4.37504C7.10378 4.37504 7.20638 4.37613 7.30835 4.3783ZM4.88397 8.57745C4.83111 8.49024 4.77886 8.40192 4.72725 8.31256C4.67564 8.22313 4.62529 8.13371 4.57618 8.04434C4.52075 8.19391 4.46953 8.34207 4.42265 8.48837C4.5728 8.52098 4.72672 8.55067 4.88397 8.57745ZM6.01119 8.71366C6.33378 8.73763 6.66464 8.75006 7.00058 8.75006C7.33653 8.75006 7.66733 8.73763 7.98992 8.71366C8.17198 8.44626 8.34814 8.16597 8.51614 7.87506C8.68408 7.58409 8.83878 7.29137 8.97925 7.00006C8.83878 6.70868 8.68408 6.41597 8.51614 6.12506C8.34814 5.83409 8.17198 5.55381 7.98992 5.28643C7.66733 5.26244 7.33653 5.25004 7.00058 5.25004C6.66464 5.25004 6.33378 5.26244 6.01119 5.28643C5.82915 5.55381 5.653 5.83409 5.48503 6.12506C5.31705 6.41597 5.16238 6.70868 5.02187 7.00006C5.16238 7.29137 5.31705 7.58409 5.48503 7.87506C5.653 8.16597 5.82915 8.44626 6.01119 8.71366ZM9.42498 5.95572C9.48039 5.80615 9.53161 5.65798 9.57851 5.51168C9.42836 5.47912 9.27442 5.44939 9.11715 5.42261C9.17 5.50983 9.22227 5.59815 9.27389 5.68754C9.32552 5.77692 9.37586 5.86635 9.42498 5.95572ZM3.57667 5.73808C3.37833 5.8025 3.19035 5.87265 3.01422 5.94813C2.15923 6.31458 1.75057 6.72863 1.75057 7.00006C1.75057 7.27142 2.15923 7.68553 3.01422 8.05192C3.19035 8.12741 3.37833 8.19758 3.57667 8.26198C3.70581 7.85312 3.86639 7.42997 4.05753 7.00006C3.86639 6.57008 3.70581 6.14693 3.57667 5.73808ZM4.42265 5.51168C4.46953 5.65798 4.52075 5.80615 4.57618 5.95572C4.62529 5.86635 4.67564 5.77692 4.72725 5.68754C4.77886 5.59815 4.83111 5.50983 4.88397 5.42261C4.72672 5.44939 4.5728 5.47912 4.42265 5.51168ZM10.4245 8.26198C10.6228 8.19758 10.8108 8.12741 10.9869 8.05192C11.8419 7.68553 12.2506 7.27142 12.2506 7.00006C12.2506 6.72863 11.8419 6.31458 10.9869 5.94813C10.8108 5.87265 10.6228 5.8025 10.4245 5.73808C10.2953 6.14693 10.1348 6.57008 9.94362 7.00006C10.1348 7.42997 10.2953 7.85312 10.4245 8.26198ZM9.57851 8.48837C9.53161 8.34207 9.48039 8.19391 9.42498 8.04434C9.37586 8.13371 9.32552 8.22313 9.27389 8.31256C9.22227 8.40192 9.17 8.49024 9.11715 8.57745C9.27442 8.55067 9.42836 8.52098 9.57851 8.48837Z" fill="var(--fill-0, #00B300)"/>
</g>
</svg>
