<svg preserveAspectRatio="none" width="100%" height="100%" overflow="visible" style="display: block;" viewBox="0 0 23.6 23.6" fill="none" xmlns="http://www.w3.org/2000/svg">
<g id="rocket-2-line" clip-path="url(#clip0_0_551)">
<path id="Vector" d="M15.2434 19.6714C14.5958 21.2244 13.3531 22.4672 11.8 23.1148C10.2469 22.4672 9.00418 21.2244 8.35652 19.6714H10.5782C10.8991 20.1518 11.3133 20.5685 11.8 20.8939C12.2867 20.5685 12.7009 20.1518 13.0218 19.6714H15.2434ZM17.7 14.5627L19.6667 16.7931V18.6881H3.93333V16.7931L5.9 14.5627V8.8547C5.9 5.4295 8.36268 2.51558 11.8 1.43566C15.2373 2.51558 17.7 5.4295 17.7 8.8547V14.5627ZM16.9814 16.7214L15.7333 15.3059V8.8547C15.7333 6.57549 14.1887 4.49807 11.8 3.52411C9.41127 4.49807 7.86667 6.57549 7.86667 8.8547V15.3059L6.61858 16.7214H16.9814ZM11.8 10.8214C10.7138 10.8214 9.83333 9.94081 9.83333 8.8547C9.83333 7.76854 10.7138 6.88803 11.8 6.88803C12.8862 6.88803 13.7667 7.76854 13.7667 8.8547C13.7667 9.94081 12.8862 10.8214 11.8 10.8214Z" fill="var(--fill-0, #01FF00)" fill-opacity="0.6"/>
</g>
<defs>
<clipPath id="clip0_0_551">
<rect width="23.6" height="23.6" fill="white"/>
</clipPath>
</defs>
</svg>
