<svg preserveAspectRatio="none" width="100%" height="100%" overflow="visible" style="display: block;" viewBox="0 0 23.625 23.625" fill="none" xmlns="http://www.w3.org/2000/svg">
<g id="Component 1">
<path id="Vector" d="M14.7656 20.6719V12.7969C14.7656 12.5358 14.6619 12.2854 14.4773 12.1008C14.2927 11.9162 14.0423 11.8125 13.7812 11.8125H9.84375C9.58268 11.8125 9.3323 11.9162 9.14769 12.1008C8.96309 12.2854 8.85938 12.5358 8.85938 12.7969V20.6719" stroke="var(--stroke-0, #00FF00)" stroke-width="1.96875" stroke-linecap="round" stroke-linejoin="round"/>
<path id="Vector_2" d="M2.95313 9.84388C2.95306 9.55749 3.01547 9.27454 3.13601 9.01476C3.25655 8.75497 3.43232 8.52462 3.65105 8.33975L10.5417 2.43449C10.897 2.13416 11.3472 1.96939 11.8125 1.96939C12.2778 1.96939 12.728 2.13416 13.0833 2.43449L19.974 8.33975C20.1927 8.52462 20.3685 8.75497 20.489 9.01476C20.6095 9.27454 20.6719 9.55749 20.6719 9.84388V18.7033C20.6719 19.2254 20.4645 19.7262 20.0952 20.0954C19.726 20.4646 19.2253 20.672 18.7031 20.672H4.92188C4.39973 20.672 3.89897 20.4646 3.52976 20.0954C3.16055 19.7262 2.95313 19.2254 2.95313 18.7033V9.84388Z" stroke="var(--stroke-0, #00FF00)" stroke-width="1.96875" stroke-linecap="round" stroke-linejoin="round"/>
</g>
</svg>
