<svg preserveAspectRatio="none" width="100%" height="100%" overflow="visible" style="display: block;" viewBox="0 0 14 14" fill="none" xmlns="http://www.w3.org/2000/svg">
<g id="search-2-line">
<path id="Vector" d="M6.41699 1.16663C9.31499 1.16663 11.667 3.51863 11.667 6.41663C11.667 9.31463 9.31499 11.6666 6.41699 11.6666C3.51899 11.6666 1.16699 9.31463 1.16699 6.41663C1.16699 3.51863 3.51899 1.16663 6.41699 1.16663ZM6.41699 10.5C8.67303 10.5 10.5003 8.67267 10.5003 6.41663C10.5003 4.16058 8.67303 2.33329 6.41699 2.33329C4.16095 2.33329 2.33366 4.16058 2.33366 6.41663C2.33366 8.67267 4.16095 10.5 6.41699 10.5ZM11.3668 10.5414L13.0166 12.1913L12.1917 13.0163L10.5418 11.3664L11.3668 10.5414Z" fill="var(--fill-0, #00FF00)"/>
</g>
</svg>
