<svg preserveAspectRatio="none" width="100%" height="100%" overflow="visible" style="display: block;" viewBox="0 0 14 14" fill="none" xmlns="http://www.w3.org/2000/svg">
<g id="SVG">
<path id="Vector" d="M7.00033 7.58341C7.32249 7.58341 7.58366 7.32225 7.58366 7.00008C7.58366 6.67792 7.32249 6.41675 7.00033 6.41675C6.67816 6.41675 6.41699 6.67792 6.41699 7.00008C6.41699 7.32225 6.67816 7.58341 7.00033 7.58341Z" stroke="var(--stroke-0, #00FF00)" stroke-width="1.16667" stroke-linecap="round" stroke-linejoin="round"/>
<path id="Vector_2" d="M7.00033 3.49992C7.32249 3.49992 7.58366 3.23875 7.58366 2.91659C7.58366 2.59442 7.32249 2.33325 7.00033 2.33325C6.67816 2.33325 6.41699 2.59442 6.41699 2.91659C6.41699 3.23875 6.67816 3.49992 7.00033 3.49992Z" stroke="var(--stroke-0, #00FF00)" stroke-width="1.16667" stroke-linecap="round" stroke-linejoin="round"/>
<path id="Vector_3" d="M7.00033 11.6667C7.32249 11.6667 7.58366 11.4055 7.58366 11.0833C7.58366 10.7612 7.32249 10.5 7.00033 10.5C6.67816 10.5 6.41699 10.7612 6.41699 11.0833C6.41699 11.4055 6.67816 11.6667 7.00033 11.6667Z" stroke="var(--stroke-0, #00FF00)" stroke-width="1.16667" stroke-linecap="round" stroke-linejoin="round"/>
</g>
</svg>
