<svg preserveAspectRatio="none" width="100%" height="100%" overflow="visible" style="display: block;" viewBox="0 0 23.625 23.625" fill="none" xmlns="http://www.w3.org/2000/svg">
<g id="Component 1">
<path id="Vector" d="M15.75 10.8281L17.7188 12.7969L21.6562 8.85938" stroke="var(--stroke-0, #01FF00)" stroke-opacity="0.6" stroke-width="1.96875" stroke-linecap="round" stroke-linejoin="round"/>
<path id="Vector_2" d="M15.75 20.6719V18.7031C15.75 17.6588 15.3352 16.6573 14.5967 15.9189C13.8583 15.1805 12.8568 14.7656 11.8125 14.7656H5.90625C4.86196 14.7656 3.86044 15.1805 3.12202 15.9189C2.38359 16.6573 1.96875 17.6588 1.96875 18.7031V20.6719" stroke="var(--stroke-0, #01FF00)" stroke-opacity="0.6" stroke-width="1.96875" stroke-linecap="round" stroke-linejoin="round"/>
<path id="Vector_3" d="M8.85938 10.8281C11.034 10.8281 12.7969 9.06525 12.7969 6.89062C12.7969 4.716 11.034 2.95312 8.85938 2.95312C6.68475 2.95312 4.92188 4.716 4.92188 6.89062C4.92188 9.06525 6.68475 10.8281 8.85938 10.8281Z" stroke="var(--stroke-0, #01FF00)" stroke-opacity="0.6" stroke-width="1.96875" stroke-linecap="round" stroke-linejoin="round"/>
</g>
</svg>
