<svg preserveAspectRatio="none" width="100%" height="100%" overflow="visible" style="display: block;" viewBox="0 0 12.8347 12.8347" fill="none" xmlns="http://www.w3.org/2000/svg">
<path id="Vector" d="M7.89589 12.0683C7.91805 12.1235 7.95657 12.1707 8.0063 12.2034C8.05602 12.2361 8.11455 12.2528 8.17404 12.2512C8.23354 12.2497 8.29114 12.23 8.33912 12.1948C8.3871 12.1596 8.42316 12.1106 8.44247 12.0543L12.2341 0.970957C12.2528 0.91927 12.2564 0.863335 12.2444 0.809697C12.2324 0.756059 12.2055 0.706936 12.1666 0.668077C12.1277 0.629218 12.0786 0.602229 12.025 0.590269C11.9713 0.578309 11.9154 0.581871 11.8637 0.60054L0.780386 4.39221C0.724093 4.41151 0.675051 4.44758 0.639845 4.49556C0.604639 4.54354 0.584953 4.60114 0.583429 4.66063C0.581905 4.72013 0.598617 4.77866 0.63132 4.82838C0.664024 4.8781 0.711155 4.91663 0.766386 4.93879L5.39222 6.79379C5.53845 6.85234 5.67132 6.93989 5.7828 7.05117C5.89428 7.16246 5.98208 7.29516 6.04089 7.44129L7.89589 12.0683Z" stroke="var(--stroke-0, #01FF00)" stroke-opacity="0.7" stroke-width="1.16667" stroke-linecap="round" stroke-linejoin="round"/>
</svg>
