<svg preserveAspectRatio="none" width="100%" height="100%" overflow="visible" style="display: block;" viewBox="0 0 8 3.50022" fill="none" xmlns="http://www.w3.org/2000/svg">
<path id="Vector" d="M1.75 3.00022C1.41848 3.00022 1.10054 2.86853 0.866117 2.63411C0.631696 2.39969 0.5 2.08174 0.5 1.75022C0.5 1.4187 0.631696 1.10076 0.866117 0.866339C1.10054 0.631918 1.41848 0.500222 1.75 0.500222C2.23234 0.491818 2.70501 0.725852 3.10637 1.1718C3.50772 1.61775 3.81914 2.25492 4 3.00022C4.18086 2.25492 4.49228 1.61775 4.89363 1.1718C5.29499 0.725852 5.76766 0.491818 6.25 0.500222C6.58152 0.500222 6.89946 0.631918 7.13388 0.866339C7.3683 1.10076 7.5 1.4187 7.5 1.75022C7.5 2.08174 7.3683 2.39969 7.13388 2.63411C6.89946 2.86853 6.58152 3.00022 6.25 3.00022" stroke="var(--stroke-0, #01FF00)" stroke-opacity="0.8" stroke-linecap="round" stroke-linejoin="round"/>
</svg>
