<svg preserveAspectRatio="none" width="100%" height="100%" overflow="visible" style="display: block;" viewBox="0 0 12 12" fill="none" xmlns="http://www.w3.org/2000/svg">
<g id="SVG">
<path id="Vector" d="M4.5 6L5.5 7L7.5 5" stroke="var(--stroke-0, #00FF00)"/>
<path id="Vector_2" d="M6 1.5C5.4 1.5 4.8 1.8 4.5 2.35C4.2006 2.27335 3.88651 2.27507 3.58797 2.35501C3.28944 2.43495 3.01651 2.59041 2.79548 2.80642C2.57445 3.02243 2.41276 3.29171 2.32598 3.58833C2.23919 3.88495 2.23025 4.19892 2.3 4.5C1.8 4.8 1.45 5.4 1.45 6C1.45 6.6 1.8 7.2 2.3 7.5C2.15 8.1 2.3 8.75 2.8 9.2C3.2 9.6 3.85 9.8 4.45 9.7C4.75 10.2 5.35 10.5 5.95 10.5C6.55 10.5 7.15 10.2 7.45 9.65C8.05 9.8 8.7 9.65 9.15 9.15C9.55 8.75 9.75 8.1 9.65 7.5C10.15 7.2 10.45 6.6 10.45 6C10.45 5.4 10.15 4.8 9.6 4.5C9.75 3.9 9.6 3.25 9.1 2.8C8.88623 2.58896 8.62429 2.43315 8.33681 2.34604C8.04933 2.25892 7.74496 2.24312 7.45 2.3C7.15 1.8 6.55 1.5 5.95 1.5H6Z" stroke="var(--stroke-0, #00FF00)"/>
</g>
</svg>
