<svg preserveAspectRatio="none" width="100%" height="100%" overflow="visible" style="display: block;" viewBox="0 0 11 11" fill="none" xmlns="http://www.w3.org/2000/svg">
<path id="Vector" d="M10.5 5.5H9.26C9.04148 5.49953 8.82883 5.57065 8.65456 5.70248C8.48029 5.83431 8.354 6.0196 8.295 6.23L7.12 10.41C7.11243 10.436 7.09664 10.4588 7.075 10.475C7.05336 10.4912 7.02705 10.5 7 10.5C6.97295 10.5 6.94664 10.4912 6.925 10.475C6.90336 10.4588 6.88757 10.436 6.88 10.41L4.12 0.59C4.11243 0.564036 4.09664 0.541228 4.075 0.525C4.05336 0.508772 4.02705 0.5 4 0.5C3.97295 0.5 3.94664 0.508772 3.925 0.525C3.90336 0.541228 3.88757 0.564036 3.88 0.59L2.705 4.77C2.64623 4.97958 2.52069 5.16426 2.34743 5.29601C2.17417 5.42776 1.96266 5.49938 1.745 5.5H0.5" stroke="var(--stroke-0, #01FF00)" stroke-opacity="0.8" stroke-linecap="round" stroke-linejoin="round"/>
</svg>
