<svg preserveAspectRatio="none" width="100%" height="100%" overflow="visible" style="display: block;" viewBox="0 0 16.6664 14.1667" fill="none" xmlns="http://www.w3.org/2000/svg">
<path id="Vector" d="M1.05106 11.9383C0.942195 12.0577 0.870353 12.206 0.844271 12.3654C0.818189 12.5248 0.838991 12.6884 0.904147 12.8362C0.969303 12.984 1.076 13.1096 1.21127 13.1979C1.34654 13.2862 1.50454 13.3332 1.66606 13.3333H14.9994C15.1609 13.3334 15.3189 13.2865 15.4543 13.1984C15.5896 13.1103 15.6965 12.9848 15.7618 12.8371C15.8271 12.6894 15.8481 12.5259 15.8223 12.3665C15.7964 12.2071 15.7247 12.0586 15.6161 11.9392C14.5077 10.7967 13.3327 9.5825 13.3327 5.83333C13.3327 4.50725 12.8059 3.23548 11.8683 2.2978C10.9306 1.36012 9.65881 0.833333 8.33272 0.833333C7.00664 0.833333 5.73487 1.36012 4.79719 2.2978C3.85951 3.23548 3.33272 4.50725 3.33272 5.83333C3.33272 9.5825 2.15689 10.7967 1.05106 11.9383Z" stroke="var(--stroke-0, #01FF00)" stroke-opacity="0.8" stroke-width="1.66667" stroke-linecap="round" stroke-linejoin="round"/>
</svg>
