<svg preserveAspectRatio="none" width="100%" height="100%" overflow="visible" style="display: block;" viewBox="0 0 557 18.8069" fill="none" xmlns="http://www.w3.org/2000/svg">
<path id="Vector 1" d="M557 7.95981H314.893L312.486 6.61923L309.338 1.69169L303.874 15.6772L299.43 4.7714L297.948 3.90184L292.855 8.32213L291.281 7.52503L288.874 7.95981H277.577L275.91 7.2714L272.206 1.69169L266.188 16.2569L260.91 4.7714L256.928 9.66271L255.817 8.32213H254.798L253.872 9.33662L252.113 7.95981L248.502 8.32213L247.668 7.95981L244.798 10.2062L241.464 7.95981H239.15L236.835 6.07575L234.335 11.2569L232.853 10.4236L229.983 16.6917L225.445 1.69169L220.075 9.33662L218.408 7.2714L216.834 8.79314L215.352 7.95981H200.815H0" stroke="url(#paint0_linear_0_369)" stroke-opacity="0.7" stroke-width="1.5"/>
<defs>
<linearGradient id="paint0_linear_0_369" x1="0" y1="9.19169" x2="557" y2="9.4359" gradientUnits="userSpaceOnUse">
<stop/>
<stop offset="0.509615" stop-color="#01FF00"/>
<stop offset="1"/>
</linearGradient>
</defs>
</svg>
