<svg preserveAspectRatio="none" width="100%" height="100%" overflow="visible" style="display: block;" viewBox="0 0 11.0003 11.0002" fill="none" xmlns="http://www.w3.org/2000/svg">
<path id="Vector" d="M4.46774 7.25012C4.4231 7.07709 4.33291 6.91918 4.20655 6.79282C4.08019 6.66646 3.92227 6.57626 3.74924 6.53162L0.681738 5.74062C0.629403 5.72577 0.583342 5.69425 0.550544 5.65085C0.517745 5.60744 0.5 5.55453 0.5 5.50012C0.5 5.44572 0.517745 5.39281 0.550544 5.3494C0.583342 5.306 0.629403 5.27448 0.681738 5.25962L3.74924 4.46812C3.92221 4.42353 4.08008 4.33341 4.20644 4.20714C4.33279 4.08088 4.42302 3.92307 4.46774 3.75012L5.25874 0.682625C5.27344 0.630084 5.30493 0.583795 5.3484 0.550822C5.39187 0.517848 5.44493 0.5 5.49949 0.5C5.55405 0.5 5.60711 0.517848 5.65058 0.550822C5.69405 0.583795 5.72553 0.630084 5.74024 0.682625L6.53074 3.75012C6.57538 3.92316 6.66557 4.08107 6.79193 4.20743C6.91829 4.33379 7.0762 4.42399 7.24924 4.46862L10.3167 5.25912C10.3695 5.27367 10.416 5.30513 10.4492 5.34866C10.4823 5.3922 10.5003 5.44541 10.5003 5.50012C10.5003 5.55484 10.4823 5.60805 10.4492 5.65159C10.416 5.69512 10.3695 5.72657 10.3167 5.74112L7.24924 6.53162C7.0762 6.57626 6.91829 6.66646 6.79193 6.79282C6.66557 6.91918 6.57538 7.07709 6.53074 7.25012L5.73974 10.3176C5.72503 10.3702 5.69355 10.4165 5.65008 10.4494C5.60661 10.4824 5.55355 10.5002 5.49899 10.5002C5.44443 10.5002 5.39137 10.4824 5.3479 10.4494C5.30443 10.4165 5.27294 10.3702 5.25824 10.3176L4.46774 7.25012Z" stroke="var(--stroke-0, #01FF00)" stroke-opacity="0.8" stroke-linecap="round" stroke-linejoin="round"/>
</svg>
