<svg preserveAspectRatio="none" width="100%" height="100%" overflow="visible" style="display: block;" viewBox="0 0 351.72 351.72" fill="none" xmlns="http://www.w3.org/2000/svg">
<g id="image">
<path id="Vector" d="M265.3 58.6485C280.786 59.4347 293.102 72.2381 293.103 87.9184V263.778L293.064 265.289C292.303 280.274 280.286 292.291 265.3 293.052L263.79 293.091H87.93L86.4232 293.052C71.4371 292.293 59.4211 280.275 58.6605 265.289L58.6213 263.778V87.9184C58.6221 72.2373 70.9371 59.4335 86.4232 58.6485L87.93 58.6097H263.79L265.3 58.6485ZM73.2777 230.164V263.778C73.2785 271.871 79.8372 278.434 87.93 278.435H238.775L131.891 171.551L73.2777 230.164ZM87.93 73.2661C79.8372 73.2665 73.2785 79.8257 73.2777 87.9184V209.45L126.716 156.013L127.27 155.509C130.148 153.162 134.392 153.33 137.074 156.013L259.501 278.435H263.79C271.883 278.434 278.446 271.871 278.446 263.778V87.9184C278.446 79.8257 271.883 73.2665 263.79 73.2661H87.93ZM214.384 102.622C233.742 103.603 249.134 119.612 249.134 139.214L249.087 141.098C248.104 160.455 232.099 175.848 212.499 175.848L210.614 175.802C191.88 174.852 176.858 159.832 175.907 141.098L175.86 139.214C175.86 118.979 192.265 102.575 212.499 102.575L214.384 102.622ZM212.499 117.231C200.358 117.231 190.516 127.073 190.516 139.214C190.518 151.353 200.359 161.196 212.499 161.196C224.638 161.195 234.48 151.352 234.481 139.214C234.481 127.073 224.639 117.231 212.499 117.231Z" fill="var(--fill-0, black)" fill-opacity="0.3"/>
</g>
</svg>
