<svg preserveAspectRatio="none" width="100%" height="100%" overflow="visible" style="display: block;" viewBox="0 0 12 12" fill="none" xmlns="http://www.w3.org/2000/svg">
<g id="SVG">
<path id="Vector" d="M6.11098 1H5.89098C5.62576 1 5.37141 1.10536 5.18387 1.29289C4.99633 1.48043 4.89098 1.73478 4.89098 2V2.09C4.8908 2.26536 4.84451 2.43759 4.75675 2.58942C4.66899 2.74124 4.54285 2.86732 4.39098 2.955L4.17598 3.08C4.02396 3.16777 3.85151 3.21397 3.67598 3.21397C3.50044 3.21397 3.328 3.16777 3.17598 3.08L3.10098 3.04C2.87151 2.90763 2.5989 2.87172 2.34298 2.94015C2.08706 3.00859 1.86875 3.17577 1.73598 3.405L1.62598 3.595C1.49361 3.82447 1.4577 4.09708 1.52613 4.353C1.59456 4.60892 1.76175 4.82722 1.99098 4.96L2.06598 5.01C2.21712 5.09726 2.34279 5.22254 2.4305 5.37342C2.51822 5.52429 2.56492 5.69549 2.56598 5.87V6.125C2.56668 6.30121 2.5208 6.47448 2.433 6.62725C2.3452 6.78003 2.21858 6.9069 2.06598 6.995L1.99098 7.04C1.76175 7.17278 1.59456 7.39108 1.52613 7.647C1.4577 7.90292 1.49361 8.17553 1.62598 8.405L1.73598 8.595C1.86875 8.82423 2.08706 8.99141 2.34298 9.05985C2.5989 9.12828 2.87151 9.09237 3.10098 8.96L3.17598 8.92C3.328 8.83223 3.50044 8.78603 3.67598 8.78603C3.85151 8.78603 4.02396 8.83223 4.17598 8.92L4.39098 9.045C4.54285 9.13268 4.66899 9.25876 4.75675 9.41058C4.84451 9.56241 4.8908 9.73464 4.89098 9.91V10C4.89098 10.2652 4.99633 10.5196 5.18387 10.7071C5.37141 10.8946 5.62576 11 5.89098 11H6.11098C6.37619 11 6.63055 10.8946 6.81808 10.7071C7.00562 10.5196 7.11098 10.2652 7.11098 10V9.91C7.11116 9.73464 7.15745 9.56241 7.24521 9.41058C7.33297 9.25876 7.45911 9.13268 7.61098 9.045L7.82598 8.92C7.978 8.83223 8.15044 8.78603 8.32598 8.78603C8.50151 8.78603 8.67396 8.83223 8.82598 8.92L8.90098 8.96C9.13044 9.09237 9.40306 9.12828 9.65898 9.05985C9.91489 8.99141 10.1332 8.82423 10.266 8.595L10.376 8.4C10.5083 8.17053 10.5443 7.89792 10.4758 7.642C10.4074 7.38608 10.2402 7.16778 10.011 7.035L9.93598 6.995C9.78337 6.9069 9.65676 6.78003 9.56896 6.62725C9.48115 6.47448 9.43528 6.30121 9.43598 6.125V5.875C9.43528 5.69879 9.48115 5.52552 9.56896 5.37275C9.65676 5.21997 9.78337 5.0931 9.93598 5.005L10.011 4.96C10.2402 4.82722 10.4074 4.60892 10.4758 4.353C10.5443 4.09708 10.5083 3.82447 10.376 3.595L10.266 3.405C10.1332 3.17577 9.91489 3.00859 9.65898 2.94015C9.40306 2.87172 9.13044 2.90763 8.90098 3.04L8.82598 3.08C8.67396 3.16777 8.50151 3.21397 8.32598 3.21397C8.15044 3.21397 7.978 3.16777 7.82598 3.08L7.61098 2.955C7.45911 2.86732 7.33297 2.74124 7.24521 2.58942C7.15745 2.43759 7.11116 2.26536 7.11098 2.09V2C7.11098 1.73478 7.00562 1.48043 6.81808 1.29289C6.63055 1.10536 6.37619 1 6.11098 1Z" stroke="var(--stroke-0, #00FF00)" stroke-linecap="round" stroke-linejoin="round"/>
<path id="Vector_2" d="M6 7.5C6.82843 7.5 7.5 6.82843 7.5 6C7.5 5.17157 6.82843 4.5 6 4.5C5.17157 4.5 4.5 5.17157 4.5 6C4.5 6.82843 5.17157 7.5 6 7.5Z" stroke="var(--stroke-0, #00FF00)" stroke-linecap="round" stroke-linejoin="round"/>
</g>
</svg>
