<svg preserveAspectRatio="none" width="100%" height="100%" overflow="visible" style="display: block;" viewBox="0 0 8 10.5" fill="none" xmlns="http://www.w3.org/2000/svg">
<path id="Vector" d="M2.25 6.25001C2.58152 6.25001 2.89946 6.11831 3.13388 5.88389C3.3683 5.64947 3.5 5.33153 3.5 5.00001C3.5 4.31001 3.25 4.00001 3 3.50001C2.464 2.42851 2.888 1.47301 4 0.500008C4.25 1.75001 5 2.95001 6 3.75001C7 4.55001 7.5 5.50001 7.5 6.50001C7.5 6.95963 7.40947 7.41476 7.23358 7.8394C7.05769 8.26404 6.79988 8.64988 6.47487 8.97488C6.14987 9.29989 5.76403 9.5577 5.33939 9.73359C4.91475 9.90948 4.45963 10 4 10C3.54037 10 3.08525 9.90948 2.66061 9.73359C2.23597 9.5577 1.85013 9.29989 1.52513 8.97488C1.20012 8.64988 0.942313 8.26404 0.766422 7.8394C0.59053 7.41476 0.5 6.95963 0.5 6.50001C0.5 5.92351 0.7165 5.35301 1 5.00001C1 5.33153 1.1317 5.64947 1.36612 5.88389C1.60054 6.11831 1.91848 6.25001 2.25 6.25001Z" stroke="var(--stroke-0, #FF8904)" stroke-linecap="round" stroke-linejoin="round"/>
</svg>
