<svg preserveAspectRatio="none" width="100%" height="100%" overflow="visible" style="display: block;" viewBox="0 0 10.0034 11.0026" fill="none" xmlns="http://www.w3.org/2000/svg">
<path id="Vector" d="M1.00171 6.5013C0.907088 6.50163 0.814321 6.47509 0.734182 6.42479C0.654043 6.37449 0.589822 6.30248 0.54898 6.21713C0.508138 6.13178 0.492352 6.0366 0.503455 5.94263C0.514558 5.84867 0.552096 5.75978 0.611705 5.6863L5.56171 0.586303C5.59884 0.543444 5.64944 0.514481 5.7052 0.504169C5.76096 0.493858 5.81857 0.502809 5.86857 0.529555C5.91857 0.556301 5.958 0.599251 5.98037 0.651357C6.00275 0.703463 6.00674 0.761627 5.99171 0.816303L5.03171 3.8263C5.0034 3.90206 4.99389 3.98356 5.004 4.06381C5.01411 4.14405 5.04354 4.22064 5.08975 4.28702C5.13597 4.35339 5.19759 4.40756 5.26934 4.44488C5.34109 4.48221 5.42083 4.50157 5.50171 4.5013H9.00171C9.09632 4.50098 9.18909 4.52751 9.26923 4.57781C9.34937 4.62812 9.41359 4.70013 9.45443 4.78547C9.49527 4.87082 9.51106 4.96601 9.49996 5.05997C9.48885 5.15394 9.45132 5.24282 9.39171 5.3163L4.44171 10.4163C4.40457 10.4592 4.35398 10.4881 4.29821 10.4984C4.24245 10.5087 4.18484 10.4998 4.13484 10.4731C4.08484 10.4463 4.04541 10.4034 4.02304 10.3512C4.00066 10.2991 3.99667 10.241 4.01171 10.1863L4.97171 7.1763C5.00001 7.10054 5.00952 7.01904 4.99941 6.9388C4.9893 6.85856 4.95988 6.78196 4.91366 6.71559C4.86745 6.64922 4.80582 6.59505 4.73407 6.55772C4.66232 6.5204 4.58258 6.50104 4.50171 6.5013H1.00171Z" stroke="var(--stroke-0, #01FF00)" stroke-opacity="0.8" stroke-linecap="round" stroke-linejoin="round"/>
</svg>
