<svg preserveAspectRatio="none" width="100%" height="100%" overflow="visible" style="display: block;" viewBox="0 0 16 16" fill="none" xmlns="http://www.w3.org/2000/svg">
<g id="Button &#226;&#134;&#146; SVG">
<path id="Vector" d="M7.99967 8.66668C8.36786 8.66668 8.66634 8.3682 8.66634 8.00001C8.66634 7.63182 8.36786 7.33334 7.99967 7.33334C7.63148 7.33334 7.33301 7.63182 7.33301 8.00001C7.33301 8.3682 7.63148 8.66668 7.99967 8.66668Z" stroke="var(--stroke-0, #01FF00)" stroke-opacity="0.7" stroke-width="1.33333"/>
<path id="Vector_2" d="M7.99967 3.99999C8.36786 3.99999 8.66634 3.70151 8.66634 3.33332C8.66634 2.96513 8.36786 2.66666 7.99967 2.66666C7.63148 2.66666 7.33301 2.96513 7.33301 3.33332C7.33301 3.70151 7.63148 3.99999 7.99967 3.99999Z" stroke="var(--stroke-0, #01FF00)" stroke-opacity="0.7" stroke-width="1.33333"/>
<path id="Vector_3" d="M7.99967 13.3333C8.36786 13.3333 8.66634 13.0349 8.66634 12.6667C8.66634 12.2985 8.36786 12 7.99967 12C7.63148 12 7.33301 12.2985 7.33301 12.6667C7.33301 13.0349 7.63148 13.3333 7.99967 13.3333Z" stroke="var(--stroke-0, #01FF00)" stroke-opacity="0.7" stroke-width="1.33333"/>
</g>
</svg>
